<?xml version="1.0" encoding="utf-8"?>
<!-- Generator: Adobe Illustrator 25.1.0, SVG Export Plug-In . SVG Version: 6.00 Build 0)  -->
<svg version="1.1" id="Layer_1" xmlns="http://www.w3.org/2000/svg" xmlns:xlink="http://www.w3.org/1999/xlink" x="0px" y="0px"
	 viewBox="0 0 916.7 586" style="enable-background:new 0 0 916.7 586;" xml:space="preserve">
<style type="text/css">
	.st0{fill:#F3F5FD;}
	.st1{fill:#FFFFFF;}
	.st2{fill:#DEE8F5;}
	.st3{fill:#EDA59F;}
	.st4{fill:#0F1011;}
	.st5{fill:#55AFFC;}
	.st6{fill:#C1D8ED;}
	.st7{fill:#2F3235;}
	.st8{fill:#FDB754;}
	.st9{opacity:0.11;}
	.st10{fill:#C98481;}
	.st11{opacity:0.15;}
	.st12{fill:#F8FCFF;}
	.st13{opacity:0.21;enable-background:new;}
	.st14{fill:#8DDBE0;}
	.st15{opacity:0.42;}
</style>
<path class="st0" d="M859.9,586c29.7,0,54.4-25,56.4-57.2c4.7-73.7-35.4-144.1-135.1-163C719.3,354,649.5,270,617.1,206.1
	c-55.5-109.7-132.4-164-211.8-164c-129.5,0-147.7,70.7-204.2,157.4C101.9,352.3,58.6,354.4,9.1,456.4c-10,20.7-9.9,48.5-8.4,72.5
	C2.7,561,27.5,586,57.2,586H859.9z"/>
<g>
	<rect x="115.7" y="71.1" class="st1" width="280.4" height="504.2"/>
	<polygon class="st0" points="115.7,575.2 321.2,575.2 321.2,105.1 115.7,71.1 	"/>
	<path class="st2" d="M115.7,71.1h280.4v504.2H115.7V71.1 M104.9,60.2V586h302.1V60.2H104.9z"/>
	<circle class="st1" cx="295.3" cy="323.1" r="12.7"/>
</g>
<g>
	<g>
		<g>
			<path class="st3" d="M394.1,172c0,0,8-3.5,8-24.6l16.2-1.6c0,0-3.3,18.7,4.2,25.3L394.1,172z"/>
			<path class="st3" d="M393.8,138.5c0.6,6.5,3.6,12.8,9,15.3c5.9,2.9,12.5,4.4,19.1,4.2c17.5,0,17.4-39.9,9.7-48.3
				s-32.3-5.5-36.3,7.1C393.2,123.4,393.2,132.4,393.8,138.5z"/>
		</g>
		<path class="st4" d="M430.7,125.9c3.4,0,6.8-0.3,10.2-0.9c0,0-1-25.9-28.6-24.4c-3.6-0.2-7.2,0-10.7,0.6
			c-8.3,1.3-20,9.7-21.9,30.9c-0.9,9.7-4.2,18.9-6.8,24.7c-1,2.3,0,4.9,2.3,5.9c0.6,0.3,1.2,0.4,1.8,0.4l59-0.5c2.5,0,4.5-2,4.5-4.5
			c0-0.4-0.1-0.9-0.2-1.3C437.1,146.3,431.2,139.7,430.7,125.9z"/>
	</g>
	<g>
		<path class="st3" d="M462.2,575.2l-20.9-2.5c0.9-7.9,2-17.4,2.1-18.9c0,0.1,0,0.2,0,0.2h21C464.4,554.7,464.4,556.6,462.2,575.2z"
			/>
		<path class="st3" d="M378.5,577.7l-21-0.1c0,0,0.1-21.7,0.1-23.6h21C378.5,556,378.5,577.7,378.5,577.7z"/>
		<path class="st5" d="M432.9,568.6l37-0.6c-1.7-44-1.8-90.2-2.4-134.4c-7.2-47.6-11-99.8-19.9-147l-77.4-4c0,0-1.7,31.4-2.4,43.8
			c-3.9,71.4-11.1,171.9-15.7,241.1l36.9,3.1c6.6-67.8,16.9-166.6,23.2-237.8c7.3,34.7,12.2,70.6,18.5,104.9
			C432,480.7,433,525.7,432.9,568.6z"/>
		<path class="st6" d="M404,585.8c2.3,0,4.1-1.9,4.1-4.1c0-0.1,0-0.2,0-0.3l0,0c-0.1-1.6-1.2-3-2.7-3.5l-24.4-8.2
			c-1-0.3-2-0.2-2.9,0.3c-3.4,2.3-7.4,3.5-11.5,3.4c-3.2-0.2-6.2-1.3-8.8-3.2c-0.7-0.5-1.6-0.4-2.2,0.2c-0.2,0.3-0.4,0.6-0.4,1v12
			c0,1.5,1.2,2.7,2.7,2.7c0,0,0,0,0,0L404,585.8z"/>
		<path class="st6" d="M487.7,585.8c2.3,0,4.1-1.9,4.1-4.1c0-0.1,0-0.2,0-0.3l0,0c-0.1-1.6-1.2-3-2.7-3.5l-24.4-8.2
			c-1-0.3-2-0.2-2.9,0.3c-3.4,2.3-7.4,3.5-11.5,3.4c-3.2-0.2-6.2-1.3-8.8-3.2c-0.7-0.5-1.6-0.4-2.2,0.2c-0.2,0.3-0.4,0.6-0.4,1v12
			c0,1.5,1.2,2.7,2.7,2.7c0,0,0,0,0,0L487.7,585.8z"/>
	</g>
	<g>
		<g>
			<path class="st3" d="M530.4,241.8c3,0,12.9-1.6,13.7,1c0.4,1.5-7,3.3-7,3.3"/>
			<path class="st3" d="M528.8,253.7c0,0,20.1,8.3,31.7-1.2c0.8-0.7,0.9-1.8,0.3-2.7c-0.3-0.4-0.8-0.7-1.3-0.7
				c-7.8-0.5-23.8-2-21.9-7.2h-12.6"/>
		</g>
		<g>
			<path class="st3" d="M476,236.5c3-0.3,12.7-2.8,13.7-0.4c0.6,1.5-6.6,4-6.6,4"/>
			<path class="st3" d="M475.6,248.6c0,0,20.8,6.3,31.4-4.2c0.7-0.7,0.7-1.9,0-2.7c-0.4-0.4-0.9-0.6-1.4-0.6
				c-7.8,0.3-23.9,0.3-22.5-5l-12.5,1.2"/>
		</g>
		<path class="st7" d="M371.5,261.7c-6,0-10.9-4.9-10.9-10.9c0-0.2,0-0.3,0-0.5l3-62.4l21.8,1l-2.4,50.3l94.9-5.2l1.2,21.8l-107,5.9
			C371.9,261.7,371.7,261.7,371.5,261.7z"/>
		<path class="st7" d="M474.5,237.5l-24.2-52.3c-2-9.1-7.7-15.4-20.8-15.9c-4-0.2-23.6-0.2-38-0.2c-9.6,0-17.5,3-22.1,7.5
			c-15.8,15.8,3.6,42.6,3.6,63.6s-9.5,30.4-8.8,41.2c1.1,16.9,83.4,12.9,87.6,3.3c4.3-9.9-4.4-16-4.1-48.5c0-1.9,0.1-3.9,0.3-5.9
			l10.2,22c1.7,3.6,5.3,6,9.3,6.1l64.2,1.4l0.4-21L474.5,237.5z"/>
	</g>
</g>
<g>
	<g>
		<g>
			<path class="st3" d="M692.3,575.2l20.9-2.5c-0.9-7.9-2-17.4-2.1-18.9c0,0.1,0,0.2,0,0.2h-21C690.1,554.7,690.1,556.6,692.3,575.2
				z"/>
			<path class="st3" d="M776,577.7l21-0.1c0,0-0.1-21.7-0.1-23.6h-21C775.9,556,776,577.7,776,577.7z"/>
			<path class="st5" d="M721.5,568.6l-37-0.6c1.5-39,1.8-83.5,2.2-123.9c0.1-10,0.9-20,2.3-29.9c6-42.7,9.8-85.2,17.8-127.7l0.3,0.1
				l0.8-5.3l76.1-4.7l4,49.7c0,0,9.9,171.9,14.4,241.1l-36.9,3.1c-6.6-67.8-16.9-166.6-23.2-237.8c-7.3,34.7-12.2,70.6-18.5,104.9
				C722.5,480.7,721.4,525.7,721.5,568.6z"/>
			<path class="st6" d="M750.4,585.8c-2.3,0-4.1-1.9-4.1-4.1c0-0.1,0-0.2,0-0.3l0,0c0.1-1.6,1.2-3,2.7-3.5l24.4-8.2
				c1-0.3,2-0.2,2.9,0.3c3.4,2.3,7.4,3.5,11.5,3.4c3.2-0.2,6.2-1.3,8.8-3.2c0.7-0.5,1.6-0.4,2.2,0.2c0.2,0.3,0.4,0.6,0.4,1v12
				c0,1.5-1.2,2.7-2.7,2.7c0,0,0,0,0,0L750.4,585.8z"/>
			<path class="st6" d="M666.7,585.8c-2.3,0-4.1-1.9-4.1-4.1c0-0.1,0-0.2,0-0.3l0,0c0.1-1.6,1.2-3,2.7-3.5l24.4-8.2
				c1-0.3,2-0.2,2.9,0.3c3.4,2.3,7.4,3.5,11.5,3.4c3.2-0.2,6.2-1.3,8.8-3.2c0.7-0.5,1.6-0.4,2.2,0.2c0.2,0.3,0.4,0.6,0.4,1v12
				c0,1.5-1.2,2.7-2.7,2.7c0,0,0,0,0,0L666.7,585.8z"/>
		</g>
		<g>
			<path class="st3" d="M586.7,228.9c0,0-8.2-4-14.4-2.5c-2.8,0.7-3.7,1.6-3.5,2.5c-1.4,0.4-2.3,0.9-2.3,1.8c0,0-0.7,11.3,1.4,13
				c3.1,2.6,18.6,0.6,18.6,0.6L586.7,228.9z"/>
			<path class="st7" d="M622.2,247.3h59.5c3.6,0,6.9-1.8,8.8-4.8l37.6-58.7l-17.7-11.3l-34.5,53.8h-53.7V247.3z"/>
			<path class="st7" d="M702.5,283.1c4.2,9.6,86.5,13.6,87.6-3.3c0.7-10.8-8.8-20.2-8.8-41.2s19.3-47.8,3.6-63.6
				c-4.6-4.6-12.5-7.5-22.1-7.5c-0.7,5.6-34.8,5.6-35,0.1c-1.3,0-2.3,0-2.9,0.1c-33.2,1.4-18.6,39.2-18.3,66.9
				C706.9,267.1,698.2,273.2,702.5,283.1z"/>
			<path class="st3" d="M727.8,167.6c0.3,5.5,3.3,13.6,12.5,14.2c12.3,0.8,21.8-8.7,22.6-14.3h0
				C750.7,167.5,734.8,167.5,727.8,167.6z"/>
			<rect x="590.8" y="199.1" class="st8" width="101" height="84"/>
			<rect x="590.8" y="199.1" class="st9" width="101" height="84"/>
			<rect x="568.8" y="199.1" class="st8" width="91" height="84"/>
			<path class="st3" d="M692.1,239.6L692.1,239.6L692.1,239.6c-0.2,0-0.3,0-0.5-0.1c-2.5-0.3-13.7-1.8-16.4-0.7
				c-0.9,0.4-0.8,1.1-0.1,1.8c-5,0.5-9.4,1.7-9.5,5.5c-0.2,6.5,15.8,8.3,21.1,7.7C691.4,253.4,698.6,240.8,692.1,239.6z"/>
			<path class="st7" d="M687.7,257.9l61.9-1.9c3.9-0.1,7.5-2.3,9.3-5.8l30.6-58.3l-19.3-10.1l-27.6,52.6l-55.5,1.7L687.7,257.9z"/>
		</g>
	</g>
	<g>
		<g>
			<path class="st3" d="M753.3,153.4c0-0.3,0-0.5,0-0.8c0-1.8,0.1-3.8,0.3-6l-1.9-0.4l-1.9-0.4l-12.1-2.2c0.3,3.6,0.2,7.1-0.2,10.7
				c0,0.5-0.1,1-0.2,1.5c0,0.4-0.1,0.7-0.2,1c0,0.1,0,0.2,0,0.3c-0.1,0.8-0.3,1.6-0.5,2.3c0,0.2-0.1,0.3-0.1,0.5c0,0,0,0.1,0,0.1
				c-0.1,0.3-0.2,0.7-0.3,1c-0.1,0.4-0.2,0.7-0.4,1.1c0,0.1-0.1,0.3-0.2,0.4c0,0,0,0.1,0,0.1c-0.1,0.2-0.2,0.4-0.2,0.6
				c0,0.1-0.1,0.2-0.1,0.3c-0.2,0.4-0.3,0.7-0.5,1.1c0,0,0,0,0,0l0,0c-0.8,1.5-1.8,2.8-3.1,3.8h25.1
				C755,165.7,753.4,161.1,753.3,153.4z"/>
			<path class="st10" d="M734.6,164.6l13.3-10.2l-10.4-0.1C737.1,157.9,736.2,161.4,734.6,164.6z"/>
			<path class="st3" d="M762.6,138.5c-1.1,6.4-4.6,12.4-10.2,14.5c-6.1,2.4-12.8,3.3-19.4,2.6c-17.5-1.4-14-41.2-5.7-48.9
				s32.7-2.8,35.6,10.1C764.5,123.5,763.7,132.4,762.6,138.5z"/>
			<g>
				<circle class="st4" cx="737.6" cy="132.1" r="1.4"/>
				<circle class="st4" cx="726.2" cy="131.2" r="1.4"/>
				<path class="st4" d="M723.7,128.1L723.7,128.1l3.8,0c0.4,0,0.7-0.3,0.7-0.7s-0.3-0.7-0.7-0.7l0,0h0l-3.8,0
					c-0.4,0-0.7,0.3-0.7,0.7C723,127.8,723.3,128.1,723.7,128.1z"/>
				<path class="st4" d="M740.7,129.5c0.4,0,0.7-0.3,0.7-0.7c0-0.3-0.2-0.6-0.5-0.7l-3.8-0.9c-0.4-0.1-0.7,0.1-0.8,0.5
					c-0.1,0.4,0.1,0.7,0.5,0.8c0,0,0,0,0,0l3.8,0.9C740.6,129.5,740.7,129.5,740.7,129.5z"/>
			</g>
			<path class="st4" d="M752.6,152.2c0.3,1.1,0.6,1.5,1.5,1c3.8-2.2,10.7-4.3,13.6-22.5c2.6-16.3-10.7-22.1-18.7-24.5
				c-6.9-2.1-5.3-1.4-12.8,3.1c-6.5,3.9-14,8.3-14,8.3c2.9,0.1,3.5,2.6,10.3,2.6c5.3,0,8.7-2.3,13.6-2.1c4.5,0.2,5.4,2.9,5.3,4.7
				C750.3,133.5,751.5,148.5,752.6,152.2z"/>
			<path class="st3" d="M745.2,135.7c-0.2,3.4,2.3,6.3,5.7,6.5c3.3,0.2,6.2-2.2,6.5-5.5c0.3-3.3-2.1-6.3-5.4-6.6c-0.1,0-0.1,0-0.2,0
				C747.4,129.9,745.4,132.3,745.2,135.7z"/>
			<g class="st11">
				<path d="M731.2,140.2c0.3,0,0.5-0.2,0.5-0.5c0-0.2-0.1-0.4-0.4-0.5l-2.9-0.9l2.1-4.6c0.1-0.3,0-0.5-0.2-0.7
					c-0.3-0.1-0.5,0-0.7,0.2c0,0,0,0,0,0l-2.3,5.1c-0.1,0.3,0,0.5,0.3,0.7c0,0,0,0,0.1,0l3.5,1.1
					C731.1,140.2,731.1,140.2,731.2,140.2z"/>
			</g>
			<path class="st4" d="M747.9,127.2l3.4,1.2c0,0-0.4,12.1-1.7,18.3s-2.3,14.2-6.2,15.1c-5.2,1.2-12.7,1.2-17.2-0.4
				c-5.1-1.8-5-20.7-5-20.7s16.4,1.8,20.9-0.4S747.9,127.2,747.9,127.2z"/>
			<path class="st12" d="M736.9,143.5c0,0-5.3,0.6-9.1-0.7c0,0,0,3.5,4.3,3.9S736.9,143.5,736.9,143.5z"/>
		</g>
		<path class="st5" d="M751.8,130.1c0,0,10.2-1.2,15.9,1.1c0,0,5.4-27.3-20.7-29.8s-24.3,19.2-24.3,19.2l20.5-1.2L751.8,130.1z"/>
		<path class="st5" d="M751.8,130.1c0,0-8.9-6.8-16.3-6.8h-15c0,0-12.2-7.9-12.1-9.9c0.1-4.1,21.7-3.7,26.2-2
			S751.8,130.1,751.8,130.1z"/>
		<path class="st13" d="M751.8,130.1c0,0-8.9-6.8-16.3-6.8h-15c0,0-12.2-7.9-12.1-9.9c0.1-4.1,21.7-3.7,26.2-2
			S751.8,130.1,751.8,130.1z"/>
	</g>
	<path class="st3" d="M568,243.8c0.3,0.2,0.6,0.4,0.9,0.5c1.8,0.4,6.3-0.7,7-2c1.2-2,0.4-9.4-0.6-12.1c-1-2.5-5.8-1.5-6.5-1.3
		c0,0,0,0-0.1,0c-1.3,0.4-2.2,0.9-2.2,1.8C566.6,230.7,565.9,242,568,243.8z"/>
</g>
<g>
	<g>
		<path class="st14" d="M105.6,528.6c-8.1-2.3-14.3-9.6-16.7-17.7s-1.6-16.9,0.8-25.1c1.9-6.6,4.9-13.1,5.6-19.9
			c2.4-22.9-19.8-46.3-9.3-66.8c3.4-6.6,9.9-11.8,11.1-19.2c1-6.1-2-12-3.5-18c-2-8.2-1-17.6,4.3-24.1s15.4-9.5,22.8-5.2
			c9.6,5.5,10.4,19.1,8,29.9s-7.1,21.9-4,32.6c2.9,10.2,12.2,17.8,13.9,28.3c1.4,8.7-2.8,17.1-4.7,25.7c-2.9,13.5,0.1,27.5,0.2,41.3
			S130.2,519.5,105.6,528.6z"/>
		<path class="st2" d="M93,529.9c-9.9-3.1-17.3-11.4-19.4-21.5c-1.6-8.2,0.4-17.4-4.1-24.5c-6.1-9.6-12.3-10.6-19.9-19.1
			c-11.7-13-12.1-18.7-11.3-42.7c0.3-10.1-13.7-21.6-8.8-31.4c4.3-8.6,17.6-8.6,25.1-2.6s10.8,15.7,14.1,24.8s7.4,18.6,15.7,23.6
			c5,2.9,11.5,4.3,14.2,9.4c2.2,4.1,1.1,9.1,0.2,13.6c-2.2,11.5-1.7,25.4,7.9,32c4.3,3,10,4,13.6,7.9c3.5,3.8,4.1,9.5,3.9,14.7
			c-0.5,10-3.2,19.7-8,28.5"/>
		<path class="st1" d="M104.6,537.8c-8.7-9.9-9.9-25.5-2.9-36.7c5.9-9.3,16.8-15.7,19.1-26.5c2.1-9.6-3.6-19.5-1.9-29.2
			c1.9-10.5,11.6-17.4,19.3-24.8c2-1.8,3.7-3.9,5.1-6.2c3.4-6.1,2.4-13.6,3.6-20.5c2.2-13.2,13.1-24.9,26.3-27.1
			c11.6-1.9,19.9,4.7,19.9,17c0,14.5-10.9,20.7-16.4,27.3c-8,9.5-12.2,21.6-11.9,34c0.4,13.9,6.3,28.6,0,40.9
			c-4.6,9.1-14.5,13.9-22.3,20.5c-11.9,10.2-19,24.8-19.7,40.3"/>
	</g>
	<rect x="72.1" y="515.1" class="st8" width="69.8" height="69.8"/>
	<g class="st15">
		<rect x="72.1" y="528.7" class="st1" width="69.8" height="13.6"/>
	</g>
</g>
<g>
	<circle class="st5" cx="565.2" cy="73.3" r="73.3"/>
	
		<ellipse transform="matrix(0.7071 -0.7071 0.7071 0.7071 113.7208 421.0842)" class="st0" cx="565.2" cy="73.3" rx="62.5" ry="62.5"/>
	<g>
		<path class="st2" d="M596.5,63.2l-29.2,16.4c-1.3,0.7-2.9,0.7-4.2,0c-1.3-0.8-2.1-2.2-2.1-3.7V31.2c0-2.3,1.9-4.3,4.3-4.3
			s4.3,1.9,4.3,4.3v37.5l22.9-12.9c2-1.2,4.6-0.4,5.8,1.6C599.2,59.5,598.5,62.1,596.5,63.2L596.5,63.2z"/>
		<path class="st5" d="M596.5,63.2l-29.2,16.4c-1.3,0.7-2.9,0.7-4.2,0c-1.3-0.8-2.1-2.2-2.1-3.7V31.2c0-2.3,1.9-4.3,4.3-4.3
			s4.3,1.9,4.3,4.3v37.5l22.9-12.9c2-1.2,4.6-0.4,5.8,1.6C599.2,59.5,598.5,62.1,596.5,63.2L596.5,63.2z"/>
	</g>
</g>
<g>
	<circle class="st8" cx="627.6" cy="122.3" r="33.7"/>
	<path class="st1" d="M621.1,140.4c-0.8,0-1.5-0.3-2-0.8L604.7,126c-1.2-1.1-1.2-3-0.1-4.2s3-1.2,4.2-0.1l0,0l12.2,11.5l25.3-27.9
		c1.1-1.2,3-1.3,4.2-0.2c1.2,1.1,1.3,3,0.2,4.2l0,0l-27.4,30.2c-0.5,0.6-1.3,0.9-2.1,1H621.1z"/>
</g>
</svg>
