<svg xmlns="http://www.w3.org/2000/svg" xmlns:xlink="http://www.w3.org/1999/xlink" viewBox="0 0 196.63 136.3" xmlns:v="https://vecta.io/nano"><style><![CDATA[.D{fill:#fff}]]></style><g fill="#95d67c"><path d="M183.76,109.45a13.39,13.39,0,0,0-2.56.25,14.35,14.35,0,0,0-26.71-4.64,11.53,11.53,0,0,0-19.71-2.76A14.35,14.35,0,0,0,110,110a12.87,12.87,0,1,0-3.7,25.2h77.43a12.87,12.87,0,1,0,0-25.74Z"/><path d="M91.14,109.45a13.55,13.55,0,0,0-2.56.25,14.35,14.35,0,0,0-26.71-4.64,11.52,11.52,0,0,0-19.7-2.76A14.36,14.36,0,0,0,17.41,110a12.87,12.87,0,1,0-3.69,25.2H91.14a12.87,12.87,0,1,0,0-25.74Z"/></g><path d="M139 40.41h-3.4a20.91 20.91 0 0 0-20.87 20.89v23.21h8.62V61.3A12.28 12.28 0 0 1 135.62 49H139a12.28 12.28 0 0 1 12.29 12.3v23.21h8.62V61.3A20.91 20.91 0 0 0 139 40.41z" class="D"/><path d="M159.91 85h-8.62a.5.5 0 0 1-.5-.5V61.3A11.78 11.78 0 0 0 139 49.53h-3.4a11.78 11.78 0 0 0-11.75 11.77v23.2a.5.5 0 0 1-.5.5h-8.62a.5.5 0 0 1-.5-.5V61.3a21.41 21.41 0 0 1 21.39-21.39H139a21.41 21.41 0 0 1 21.41 21.39v23.2a.5.5 0 0 1-.5.5zm-8.12-1h7.62V61.3A20.41 20.41 0 0 0 139 40.91h-3.4a20.42 20.42 0 0 0-20.37 20.39V84h7.62V61.3a12.79 12.79 0 0 1 12.77-12.77H139a12.79 12.79 0 0 1 12.79 12.77z"/><rect x="114.97" y="79.11" width="56.68" height="56.68" rx="6.77" class="D"/><use xlink:href="#B"/><path d="M153.52,135.79V79.11h5.82a6,6,0,0,1,6,5.52L164,130a6,6,0,0,1-6,5.83h-4.41"/><path d="M151.29 74.16l8.62 1.88.19 3.86-8.81-.79v-4.95zm-36.56 0l8.62 1.88.19 3.86-8.81-.79v-4.95z"/><rect x="103.61" y="79.11" width="56.68" height="56.68" rx="6.77" class="D"/><use xlink:href="#B" x="-11.36"/><path d="M137.32,116.7l-1.58-13.1a4.58,4.58,0,1,0-6.25,0l-1.58,13.1Z" class="D"/><path d="M137.32 117.2h-9.41a.48.48 0 0 1-.37-.17.47.47 0 0 1-.12-.39l1.58-12.86a5.08 5.08 0 1 1 7.3 0l1.55 12.86a.51.51 0 0 1-.12.39.5.5 0 0 1-.41.17zm-8.84-1h8.28l-1.51-12.54a.52.52 0 0 1 .15-.43 4 4 0 0 0 1.3-3 4.08 4.08 0 1 0-6.87 3 .5.5 0 0 1 .16.43z"/><path d="M135.74,103.6a4.57,4.57,0,0,0-3.12-7.92,4.63,4.63,0,0,0-1.45.23,4.58,4.58,0,0,1,1.68,7.69l1.58,13.1h2.89Z"/><path d="M142,84.51h5.76a6.4,6.4,0,0,1,6.41,6.4v6.44" class="D"/><path d="M154.16 97.85a.5.5 0 0 1-.5-.5v-6.44a5.92 5.92 0 0 0-5.91-5.91H142a.5.5 0 1 1 0-1h5.76a6.92 6.92 0 0 1 6.91 6.91v6.44a.51.51 0 0 1-.51.5z"/><g fill="#f9b121"><path d="M113.34 49a10 10 0 0 0-10 10 10 10 0 0 0-10-10 10 10 0 0 0 10-10 10 10 0 0 0 10 10z"/><ellipse cx="165.34" cy="71.89" rx="3.01" ry="6.15" transform="matrix(.208253 -.978075 .978075 .208253 60.58 218.63)"/></g><path d="M176.57 136.3H.5a.5.5 0 1 1 0-1h176.07a.5.5 0 1 1 0 1zM49.75 14.66s-5.12-2.15-1.47-6.15a3.14 3.14 0 0 1 4.38 1"/><path d="M37.7 106.53c-2.66-1.37-4-53.85-4-53.85a11 11 0 0 1 7.59-12L56 36.06a10.93 10.93 0 0 1 6.6 0l14.64 4.6a11 11 0 0 1 7.6 12S82.78 79.2 82 105c0 0-21.21 13.51-44.3 1.53z" class="D"/><path d="M57.83 112a43.78 43.78 0 0 1-20.36-5c-2.71-1.4-3.93-41.91-4.23-54.29a11.43 11.43 0 0 1 7.94-12.5l14.65-4.61a11.44 11.44 0 0 1 6.9 0l14.64 4.61a11.47 11.47 0 0 1 7.95 12.55c0 .24-2 26.78-2.79 52.3v.27l-.22.14A50.45 50.45 0 0 1 57.83 112zm-19.89-5.9c21.31 11 41.27 0 43.6-1.36.75-25.46 2.76-51.84 2.78-52.1a10.48 10.48 0 0 0-7.25-11.5l-14.64-4.61a10.58 10.58 0 0 0-6.3 0l-14.65 4.61a10.47 10.47 0 0 0-7.25 11.47c.5 19.82 1.94 51.78 3.71 53.49z"/><path d="M98.52 93.07l-9.73-17.13 11.61-5.42 7.99 15.24" class="D"/><path d="M98.52 93.57a.52.52 0 0 1-.44-.25l-9.73-17.13a.5.5 0 0 1 0-.4.51.51 0 0 1 .26-.3l11.62-5.43a.51.51 0 0 1 .66.23l8 15.24a.49.49 0 0 1-.21.67.5.5 0 0 1-.68-.2l-7.77-14.82-10.69 5L99 92.83a.49.49 0 0 1-.18.68.57.57 0 0 1-.3.06z"/><path d="M101.22,90.55,76.73,97a7.28,7.28,0,0,1-1.24.18c-1.13,0-4.63-.36-6.6.13a.55.55,0,0,0-.07,1c1.05.4,2.64.67,2.92,1,0,0,.63.75-1,1.23-1.86.55-6.11,1.62-8.77,2.05a.47.47,0,0,0,.07.93,56,56,0,0,0,8.6-.82l-.11.16c-2.54.72-7.27,1.85-9.8,2.29a.47.47,0,0,0,.08.94,64,64,0,0,0,9.64-.93l.06.11c-2.11.6-5.55,1.34-7.82,1.71a.47.47,0,0,0,.07.93,58.31,58.31,0,0,0,9.12-.91l.12.1a15.41,15.41,0,0,1-4.29,1.16c-.58.08-.46,1.08.13,1.06a73.82,73.82,0,0,0,8.6-1l2.82-.5,28.21-6.06a6.52,6.52,0,0,0,4.4-9.39l-3.47-6.6" class="D"/><path d="M67.8 109.85a1 1 0 0 1-1-1 1.11 1.11 0 0 1 .16-.68l-4.23.23a1 1 0 0 1-.4-1.85h-1.55a1 1 0 0 1-1-.9 1 1 0 0 1 .79-1l3.37-.69h-2a1 1 0 0 1-.15-1.92c2.57-.42 6.78-1.47 8.71-2 .69-.2.77-.4.77-.41A5.58 5.58 0 0 0 70 99.2l-1.36-.42a1 1 0 0 1-.68-1 1.05 1.05 0 0 1 .8-1 22.9 22.9 0 0 1 5.77-.18h1a6.66 6.66 0 0 0 1.12-.17l24.47-6.39a.5.5 0 1 1 .26 1l-24.49 6.4a7.28 7.28 0 0 1-1.35.2h-1a23.39 23.39 0 0 0-5.48.16v.11c.38.14.84.27 1.28.39 1 .28 1.59.45 1.85.79a1 1 0 0 1 .19.94c-.15.49-.62.84-1.45 1.08a89.46 89.46 0 0 1-8.93 2 64.66 64.66 0 0 0 8.51-.87.5.5 0 0 1 .51.23.52.52 0 0 1 0 .55l-.12.16a.48.48 0 0 1-.27.19c-2.46.7-7.19 1.84-9.84 2.31a71.54 71.54 0 0 0 9.55-1 .51.51 0 0 1 .54.29.64.64 0 0 1 0 .47c-.07.14-.16.3-.3.34a85.13 85.13 0 0 1-7.87 1.71 64.91 64.91 0 0 0 9-1 .54.54 0 0 1 .41.11.64.64 0 0 1 .23.49c0 .17-.06.36-.2.43a15.8 15.8 0 0 1-4.44 1.21h0s0 .06.06.08a76.6 76.6 0 0 0 8.5-1l2.82-.5 28.19-6.06a6 6 0 0 0 4.06-8.66L108 86a.5.5 0 0 1 .21-.67.49.49 0 0 1 .67.21l3.47 6.6a7 7 0 0 1-4.74 10.11l-28.26 6.05-2.83.5a74.65 74.65 0 0 1-8.67 1z"/><path d="M109.45,95.27s-1.13,2.38,0,2.32.36-1.16.36-1.16" class="D"/><path d="M109.41 98.09a.89.89 0 0 1-.78-.39c-.47-.7.1-2.08.37-2.64a.5.5 0 1 1 .9.43c-.07.14-.13.3-.19.45a.53.53 0 0 1 .51.2 1.55 1.55 0 0 1 .25 1.4 1.06 1.06 0 0 1-1 .55zm0-1.27a.67.67 0 0 0 0 .33.67.67 0 0 1 .14-.09s-.02-.12-.09-.24zM88.79 77.41s7.74 1.72 14.41-1.55l-1.55-3.18z"/><path d="M77.16,40.66A32.84,32.84,0,0,1,96.53,54.8s4.92,6.08,6.81,16.6a26.19,26.19,0,0,1-16.89,5.76s-2-.39-4.92-11.47" class="D"/><path d="M86.45 77.66c-.49-.08-2.6-1-5.4-11.84l1-.25c2.43 9.38 4.26 10.9 4.55 11.09a26.25 26.25 0 0 0 16.24-5.45 38.94 38.94 0 0 0-6.66-16.1A32.66 32.66 0 0 0 77 41.15l.26-1A33.64 33.64 0 0 1 97 54.56c.15.18 5 6.23 6.86 16.75v.27l-.2.19c-.24.23-6.46 5.89-17.21 5.89z"/><path d="M81.748 95.127l1.207-23.259.999.052-1.207 23.259z"/><path d="M55.14 27.86l-1.51 10.85a5.58 5.58 0 0 0 3.82 6.14 5.34 5.34 0 0 0 2.82 0 5.59 5.59 0 0 0 4.1-6.12L63.1 28.4a10.77 10.77 0 0 1-7.96-.54z" class="D"/><path d="M58.94 45.57a5.77 5.77 0 0 1-1.64-.25 6.09 6.09 0 0 1-4.17-6.68l1.61-11.55.63.33a10.3 10.3 0 0 0 7.56.51l.59-.21 1.35 11a6 6 0 0 1-5.93 6.85zm-3.4-17l-1.42 10.21a5.1 5.1 0 0 0 3.47 5.59 4.83 4.83 0 0 0 2.56 0 5.07 5.07 0 0 0 3.73-5.57l-1.2-9.79a11.25 11.25 0 0 1-7.14-.4z"/><path d="M63.49 32.79s-3.82.7-5.54-1.16a12.38 12.38 0 0 1-2.41-3.74h7.54z"/><circle cx="59.79" cy="18.26" r="10.67" class="D"/><path d="M59.79,29.43A11.17,11.17,0,1,1,71,18.26,11.18,11.18,0,0,1,59.79,29.43Zm0-21.34A10.17,10.17,0,1,0,70,18.26,10.18,10.18,0,0,0,59.79,8.09Z"/><path d="M52.92 13.29S47.78 8 51.25 2.75s12 1.41 12 1.41.3-3.84 5.56-2.56c0 0 3.78.88.89 7.05 0 0 4.75-3.49 5.65 1.33 0 0 1 6-5.13 11.31 0 0-.39-1.65-1-1.31s-1.15 1.25-2 1.31-.64-8-.64-8z"/><path d="M65.38,7.45a.27.27,0,0,1-.24-.17A5.78,5.78,0,0,0,63.3,4.37.25.25,0,0,1,63.59,4a6.23,6.23,0,0,1,2,3.17.25.25,0,0,1-.16.31Z" class="D"/><path d="M60.86,2.58A7.07,7.07,0,0,0,52.23.79S48.56,3,49.71,8.65c0,0-4.74-1.05-5.64,3.77,0,0-1,3.55,5.13,8.87,0,0,.38-1.65,1-1.31s1.16,1.25,2.05,1.31.65-8,.65-8"/><g class="D"><path d="M68.21 10a.23.23 0 0 1-.11 0 .25.25 0 0 1-.1-.35c1.61-3.31-.22-5.23-.3-5.31a.25.25 0 0 1 0-.35.24.24 0 0 1 .3.01s2.16 2.23.39 5.88a.24.24 0 0 1-.18.12zm-13.11.57h0c-3.68-.14-3.78-5.29-3.78-5.34a.25.25 0 0 1 .24-.23h0a.25.25 0 0 1 .25.25s.1 4.72 3.3 4.84a.25.25 0 0 1 .24.26.24.24 0 0 1-.25.22zm16.39 8.36h-.12a.26.26 0 0 1-.11-.34c2.42-4.76 2.33-6.73 2.06-7.48-.16-.43-.38-.53-.39-.53a.26.26 0 0 1-.14-.33.24.24 0 0 1 .31-.14 1.21 1.21 0 0 1 .66.77c.4 1 .37 3.19-2.05 7.94a.26.26 0 0 1-.22.11zm-22.88 0a.26.26 0 0 1-.23-.13c-2.41-4.75-2.45-6.94-2.05-7.94a1.21 1.21 0 0 1 .66-.77.25.25 0 0 1 .32.15.26.26 0 0 1-.15.32s-.23.11-.38.53c-.28.75-.37 2.72 2 7.48a.26.26 0 0 1-.11.34z"/><path d="M68.09,20.88s1.16-3.61,2.37-2.62c3,2.46-.93,4.64-.93,4.64"/></g><path d="M69.53 23.4a.49.49 0 0 1-.43-.26.5.5 0 0 1 .19-.68c.47-.26 1.69-1.16 1.78-2.15a2 2 0 0 0-.93-1.66c-.09-.07-.12-.06-.15-.06-.42.13-1.08 1.36-1.43 2.44a.51.51 0 0 1-.63.33.5.5 0 0 1-.32-.63c.15-.46.94-2.76 2.1-3.1a1.15 1.15 0 0 1 1.06.24 3 3 0 0 1 1.3 2.53c-.16 1.72-2.21 2.89-2.29 2.94a.54.54 0 0 1-.25.06z"/><path d="M51.33,20.88S50.16,17.27,49,18.26c-3,2.46.92,4.64.92,4.64" class="D"/><path d="M49.88 23.4a.5.5 0 0 1-.24-.06c-.09-.05-2.14-1.22-2.29-2.94a2.93 2.93 0 0 1 1.29-2.53 1.15 1.15 0 0 1 1.06-.24c1.16.34 2 2.64 2.1 3.1a.49.49 0 0 1-.32.63.51.51 0 0 1-.63-.33c-.35-1.08-1-2.31-1.43-2.44 0 0-.06 0-.14.06a2 2 0 0 0-.94 1.66c.09 1 1.32 1.89 1.78 2.15a.5.5 0 0 1 .2.68.49.49 0 0 1-.44.26z"/><path d="M21.02 93.07l9.73-17.13-11.62-5.42-7.99 15.24" class="D"/><path d="M21 93.57a.54.54 0 0 1-.25-.06.51.51 0 0 1-.19-.68l9.47-16.66-10.7-5L11.59 86a.51.51 0 0 1-.68.21.5.5 0 0 1-.21-.67l8-15.24a.51.51 0 0 1 .66-.23L31 75.49a.53.53 0 0 1 .27.3.55.55 0 0 1 0 .4l-9.82 17.13a.5.5 0 0 1-.45.25z"/><path d="M18.32,90.55,42.8,97a7.41,7.41,0,0,0,1.24.18c1.13,0,4.64-.36,6.6.13a.55.55,0,0,1,.07,1c-1,.4-2.63.67-2.91,1,0,0-.64.75,1,1.23,1.86.55,6.12,1.62,8.78,2.05a.47.47,0,0,1-.07.93,56,56,0,0,1-8.6-.82l.11.16c2.53.72,7.26,1.85,9.8,2.29a.47.47,0,0,1-.09.94,64.27,64.27,0,0,1-9.64-.93,1.17,1.17,0,0,1-.05.11c2.1.6,5.55,1.34,7.82,1.71a.47.47,0,0,1-.07.93,58.31,58.31,0,0,1-9.12-.91l-.12.1a15.43,15.43,0,0,0,4.28,1.16c.59.08.47,1.08-.12,1.06a73.82,73.82,0,0,1-8.6-1l-2.82-.5-28.21-6.06a6.51,6.51,0,0,1-4.4-9.39l3.47-6.6" class="D"/><path d="M51.73 109.85h0a74.31 74.31 0 0 1-8.67-1l-2.82-.5L12 102.24a7 7 0 0 1-4.76-10.11l3.46-6.6a.5.5 0 0 1 .89.46L8.12 92.6a6 6 0 0 0 4.06 8.66l28.22 6.06 2.8.5a75.06 75.06 0 0 0 8.53 1v-.11a14.58 14.58 0 0 1-4.39-1.17.49.49 0 0 1-.27-.39.5.5 0 0 1 .19-.44.84.84 0 0 1 .52-.2 57 57 0 0 0 9 .9 69 69 0 0 1-7.88-1.65.52.52 0 0 1-.31-.72.7.7 0 0 1 .58-.38 63.8 63.8 0 0 0 9.56.93c-2.65-.41-7.39-1.55-9.85-2.25a.52.52 0 0 1-.27-.19l-.11-.15a.48.48 0 0 1 0-.55.5.5 0 0 1 .51-.23 59.75 59.75 0 0 0 8.51.81 76.37 76.37 0 0 1-8.84-2c-.82-.24-1.29-.59-1.44-1.08a1 1 0 0 1 .2-1c.25-.33.83-.5 1.84-.78.43-.12.89-.25 1.28-.39v-.11a23.36 23.36 0 0 0-5.56-.09h-1a6.91 6.91 0 0 1-1.36-.2L18.19 91a.5.5 0 0 1-.36-.61.5.5 0 0 1 .61-.35l24.49 6.39a6.3 6.3 0 0 0 1.13.17h.93a22.89 22.89 0 0 1 5.77.18 1.06 1.06 0 0 1 .81 1 1.05 1.05 0 0 1-.68 1c-.41.16-.9.29-1.37.42a6.68 6.68 0 0 0-1.34.46s.07.23.76.43c1.93.57 6.15 1.62 8.72 2a1 1 0 0 1-.15 1.92h-2a76.22 76.22 0 0 0 3.36.69 1 1 0 0 1 .8 1 1 1 0 0 1-1 .9h-1.56a1 1 0 0 1-.39 1.85 38.11 38.11 0 0 1-4.23-.23 1 1 0 0 1 .15.68 1 1 0 0 1-.91.95z"/><path d="M10.09,95.27s1.12,2.38,0,2.32-.36-1.16-.36-1.16" class="D"/><path d="M10.13 98.09h-.07a1.08 1.08 0 0 1-1-.55 1.55 1.55 0 0 1 .26-1.4.51.51 0 0 1 .51-.2l-.2-.45a.51.51 0 0 1 .24-.67.5.5 0 0 1 .67.24c.26.56.83 1.94.37 2.64a.91.91 0 0 1-.78.39zm-.15-1h.13a.62.62 0 0 0 0-.29 1.23 1.23 0 0 0-.12.28zm20.77-19.68S23 79.13 16.33 75.86l1.56-3.18z"/><path d="M42.38,40.66A32.84,32.84,0,0,0,23,54.8s-4.91,6.08-6.8,16.6c0,0,6.21,5.76,16.89,5.76,0,0,2-.39,4.92-11.47" class="D"/><path d="M33.16,77.65c-10.83,0-17-5.64-17.3-5.88l-.2-.19.05-.27c1.89-10.52,6.7-16.57,6.91-16.83a33.52,33.52,0,0,1,19.63-14.3l.26,1A32.63,32.63,0,0,0,23.44,55a39.39,39.39,0,0,0-6.7,16.17A26.22,26.22,0,0,0,33,76.66c.29-.19,2.11-1.71,4.54-11.09l1,.25c-2.81,10.84-4.91,11.76-5.31,11.83Z"/><path d="M35.84 68.8h49a3.25 3.25 0 0 1 3.25 3.25V104a1.63 1.63 0 0 1-1.63 1.63H34.22a1.63 1.63 0 0 1-1.63-1.63V72.05a3.25 3.25 0 0 1 3.25-3.25z" class="D"/><path d="M86.45 106.11H34.22a2.13 2.13 0 0 1-2.13-2.11V72.05a3.75 3.75 0 0 1 3.75-3.75h49a3.75 3.75 0 0 1 3.75 3.75V104a2.13 2.13 0 0 1-2.14 2.11zM35.84 69.3a2.75 2.75 0 0 0-2.75 2.75V104a1.13 1.13 0 0 0 1.13 1.13h52.23a1.14 1.14 0 0 0 1.13-1.13V72.05a2.75 2.75 0 0 0-2.75-2.75z"/><rect x="32.59" y="105.61" width="55.49" height="4.99" rx="1.63" class="D"/><path d="M86.45 111.09H34.22a2.13 2.13 0 0 1-2.13-2.09v-1.73a2.12 2.12 0 0 1 2.13-2.12h52.23a2.12 2.12 0 0 1 2.13 2.12V109a2.13 2.13 0 0 1-2.13 2.09zm-52.23-5a1.12 1.12 0 0 0-1.13 1.12V109a1.12 1.12 0 0 0 1.13 1.13h52.23a1.13 1.13 0 0 0 1.13-1.13v-1.73a1.13 1.13 0 0 0-1.13-1.12z"/><circle cx="60.33" cy="88.05" r="6.36"/><path d="M58.73,49.52A8.34,8.34,0,0,1,52.24,47c-3.1-3.42-2.47-8.94-2.45-9.17a.5.5,0,1,1,1,.12c0,.05-.6,5.31,2.19,8.38a7.49,7.49,0,0,0,6,2.23,7.3,7.3,0,0,0,5.82-2.45c2.61-3.2,1.68-8.49,1.67-8.54a.5.5,0,1,1,1-.19c0,.24,1,5.8-1.87,9.36A8.27,8.27,0,0,1,59,49.52Z"/><path d="M77.11,133.81s24.13,5,30.13-2.37c0,0,5.5-8.88-2.75-9.38l-26.38,2.75" class="D"/><path d="M92.91,136A87.93,87.93,0,0,1,77,134.3l.2-1c.24.05,23.9,4.86,29.64-2.2h0s2.62-4.3,1.33-6.78c-.55-1.06-1.8-1.66-3.72-1.78l-26.3,2.75-.1-1,26.37-2.75c2.38.14,3.91.92,4.64,2.32,1.55,3-1.29,7.62-1.41,7.82C105,135,98.92,136,92.91,136Z"/><path d="M82.69 134.74c7.51 1 20.26 1.78 24.39-3.31 0 0 5.5-8.87-2.75-9.37L87 123.87c0 .38-.5 10.2-4.31 10.87z"/><path d="M77.11,133.81l-12-.51S61,119.35,68.63,119l9.48,5.85" class="D"/><path d="M77.11,134.31h0l-12.31-.53-.1-.34c-.11-.37-2.63-9,.19-13a4.6,4.6,0,0,1,3.74-2h.15l9.61,5.94a.49.49,0,0,1,.17.68.51.51,0,0,1-.69.17l-9.34-5.77A3.59,3.59,0,0,0,65.68,121c-2.24,3.18-.57,10.2-.14,11.83l11.59.49a.5.5,0,0,1,0,1Z"/><path d="M71.45,120.7s3.67,9.15-2.44,13.11l-6-.71,3.5-15.5Z"/><path d="M50.93,129.88s-37.19-4.94-44.44-21.44S10,89.19,10,89.19c9-3.25,58.25,28.25,58.25,28.25s3.75,10.5-5.25,18L18,114.69" class="D"/><path d="M63.06,136l-12.27-5.66a125.25,125.25,0,0,1-19.52-4.54C17.59,121.4,9.09,115.62,6,108.64c-2.82-6.4-3.31-11.55-1.48-15.31A8.85,8.85,0,0,1,9.86,88.7C19,85.42,66.49,115.72,68.5,117l.15.1.06.16c0,.11,3.76,10.91-5.4,18.55ZM18.19,114.23l44.72,20.62a16.18,16.18,0,0,0,4.91-17.09c-1.44-.91-13.1-8.3-25.58-15.23-22-12.26-29.62-13.77-32.08-12.87a8,8,0,0,0-4.72,4.12c-1.69,3.48-1.18,8.35,1.5,14.45,5.73,13,30.92,18.81,40.42,20.55L17.78,115.14Z"/><path d="M57 110.52s-11.5 6.35-18.15 13.8l8.57 4 12.35-16.08zm42.25 12.09s-10.25 7.08-20.38 7.74l-.76-5.54z"/><path d="M44.59 133.81c-.13 0-2.42.5-5.72.93-7.51 1-20.26 1.78-24.39-3.31 0 0-5.5-8.87 2.75-9.37l26.33 2.75" class="D"/><path d="M28.61 136c-6.17 0-11.9-1-14.52-4.23-.15-.25-3-4.88-1.44-7.86.72-1.41 2.25-2.19 4.55-2.33l26.45 2.76-.1 1-26.37-2.75c-1.84.12-3.09.72-3.64 1.79-1.29 2.48 1.34 6.78 1.37 6.82 3.95 4.87 16.67 4 23.9 3.08 3.4-.45 5.65-.92 5.67-.92l.23 1c-.24.06-2.56.52-5.77.94a80.87 80.87 0 0 1-10.33.7z"/><path d="M44.6,133.81l12-.51s4.13-14-3.48-14.34l-9.48,5.85s-.13.34-.29.9" class="D"/><path d="M44.6,134.31a.5.5,0,0,1,0-1l11.59-.49c.43-1.63,2.11-8.65-.14-11.83a3.59,3.59,0,0,0-2.82-1.52L44,125.15c0,.14-.13.38-.22.69a.5.5,0,0,1-.61.35.51.51,0,0,1-.35-.62c.17-.59.31-.94.31-.94l.06-.16,9.75-6h.16a4.61,4.61,0,0,1,3.74,2c2.82,4,.29,12.65.19,13l-.11.34-12.3.53Z"/><path d="M50.55,120.52S48.1,129,52.7,133.1l5.86-.5-2.83-15Z"/><path d="M103.73,114.69l-45,20.75c-9-7.5-5.25-18-5.25-18s49.25-31.5,58.25-28.25c0,0,10.75,2.75,3.5,19.25s-44.45,21.44-44.45,21.44" class="D"/><path d="M58.65 136l-.24-.2c-9.16-7.64-5.44-18.44-5.4-18.55l.06-.16.14-.1c2-1.29 49.57-31.59 58.69-28.29a8.81 8.81 0 0 1 5.27 4.61c1.83 3.76 1.33 8.91-1.48 15.31-3.07 7-11.56 12.76-25.25 17.18a126.29 126.29 0 0 1-19.52 4.54zm-4.75-18.24a16.13 16.13 0 0 0 4.91 17.09l44.71-20.62.42.91-29.58 13.64c9.5-1.74 34.69-7.52 40.41-20.55 2.69-6.1 3.19-11 1.51-14.45a8 8 0 0 0-4.68-4.11c-2.51-.91-10.08.6-32.13 12.86-12.47 6.94-24.13 14.32-25.57 15.23z"/><path d="M99.93 116.44l-16.71 10.93-10.71 1.71 27.42-12.64zm-61.06 18.3c-7.51 1-20.26 1.78-24.39-3.31 0 0-5.5-8.87 2.75-9.37l17.33 1.81c.02.38.5 10.2 4.31 10.87z"/><defs ><path id="B" d="M164.88 136.29h-43.14a7.28 7.28 0 0 1-7.27-7.27V85.88a7.28 7.28 0 0 1 7.27-7.27h43.14a7.28 7.28 0 0 1 7.27 7.27V129a7.28 7.28 0 0 1-7.27 7.29zm-43.14-56.68a6.28 6.28 0 0 0-6.27 6.27V129a6.27 6.27 0 0 0 6.27 6.27h43.14a6.27 6.27 0 0 0 6.27-6.27V85.88a6.28 6.28 0 0 0-6.27-6.27z"/></defs></svg>